<?xml version="1.0" encoding="utf-8"?>
<!-- Generator: Adobe Illustrator 16.0.3, SVG Export Plug-In . SVG Version: 6.00 Build 0)  -->
<!DOCTYPE svg PUBLIC "-//W3C//DTD SVG 1.1//EN" "http://www.w3.org/Graphics/SVG/1.1/DTD/svg11.dtd">
<svg version="1.1" id="Layer_1" xmlns="http://www.w3.org/2000/svg" xmlns:xlink="http://www.w3.org/1999/xlink" x="0px" y="0px"
	 width="83.578px" height="118.641px" viewBox="109.014 90.651 83.578 118.641"
	 enable-background="new 109.014 90.651 83.578 118.641" xml:space="preserve">
<g>
	<path fill="#A098CA" d="M109.014,199.229l74.884,10.063l8.693-95.077l-13.192-2.191l1.004-16.407l-43.792-4.965l-1.823,16.079
		l-15.897-1.803L109.014,199.229z M129.066,118.375l13.836,1.222l2.266-14.203l20.42,2.911l-1.172,15.792l15.718,2.197
		l-6.729,67.919l-48.306-6.625L129.066,118.375z"/>
	<path fill="#A098CA" d="M172.702,162.927l-6.145-7.713l-9.875,7.863l-4.936-6.198c1.597-0.29,2.936-0.891,4.013-1.815
		c2.835-2.431,3.08-6.256,3.264-9.052c0.034-0.517,0.065-0.996,0.11-1.419c0.299-2.625-0.433-4.934-2.171-6.863
		c-5.469-6.06-19.545-5.963-20.136-5.963l-1.589,0.018l-3.904,34.437l9.533,1.479l0.904-7.985c1.473,1.92,4.243,5.593,7.104,9.578
		l-11.104,8.844l6.141,7.713l11.249-8.958c1.232,1.379,2.517,2.808,2.806,3.134l5.247,6.593l7.477-5.953l-7.867-9.875
		L172.702,162.927z M149.161,147.006c-1.237,0.87-4.037,0.775-6.007,0.524l0.631-5.577c2.492,0.569,6.193,1.864,5.942,4.077
		C149.678,146.467,149.51,146.759,149.161,147.006"/>
</g>
</svg>
