<?xml version="1.0" encoding="utf-8"?>
<!-- Generator: Adobe Illustrator 16.0.3, SVG Export Plug-In . SVG Version: 6.00 Build 0)  -->
<!DOCTYPE svg PUBLIC "-//W3C//DTD SVG 1.1//EN" "http://www.w3.org/Graphics/SVG/1.1/DTD/svg11.dtd">
<svg version="1.1" id="Layer_1" xmlns="http://www.w3.org/2000/svg" xmlns:xlink="http://www.w3.org/1999/xlink" x="0px" y="0px"
	 width="88.571px" height="50.625px" viewBox="105.5 124.743 88.571 50.625" enable-background="new 105.5 124.743 88.571 50.625"
	 xml:space="preserve">
<g>
	<path fill="#FFFFFF" d="M143.121,146.409c1.006,0.169,2.835-0.404,3.913-1.228l0.071-0.054l0.015-0.087
		c0.027-0.163-0.06-0.283-0.124-0.371c-0.04-0.055-0.074-0.102-0.08-0.149l-0.021-0.176l-0.176-0.021
		c-0.734-0.085-1.284,0.121-1.815,0.319c-0.522,0.196-1.015,0.38-1.687,0.3c-3.146-0.4-7.298-4.198-7.542-6.978
		c0.122-0.138,0.716-0.162,1.195-0.18c0.815-0.032,1.74-0.069,2.25-0.53l0.128-0.116l-0.08-0.154
		c-0.012-0.023-1.177-2.275-1.507-3.042l-0.041-0.095c-0.142-0.324-0.355-0.813-0.234-1.069c0.015-0.033,0.061-0.13,0.264-0.188
		c1.747-0.502,4.998,1.789,5.031,1.813l0.538,0.381l-0.191-0.631c-0.378-1.254-1.123-4.71-0.028-5.632
		c0.234-0.198,0.496-0.27,0.801-0.218c0.002,0,0.005,0,0.008,0.001c1.646,0.287,3.712,3.813,3.733,3.849l0.4,0.691l0.019-0.8
		c0.031-1.264,0.32-4.737,1.282-5.608c0.151-0.137,0.308-0.197,0.477-0.184c0.741,0.063,1.664,2.509,2.1,4.235l0.183,0.718
		l0.249-0.698c0.012-0.029,1.063-2.92,2.563-3.095c0.807-0.094,1.336,0.382,1.639,0.798c0.88,1.207,0.997,3.322,0.271,4.92
		l-0.121,0.268l1.224,0.204l0.063-0.178c0.019-0.051,0.442-1.248,0.566-1.669c0.561-1.938-0.035-3.807-1.677-5.265
		c-0.583-0.518-1.509-0.599-2.169-0.45c-0.813,0.185-1.688,1.141-2.133,1.69c-0.256-0.937-1.02-2.894-3.04-2.987
		c-1.824,0.363-2.066,2.308-2.261,3.871c-0.027,0.211-0.052,0.417-0.08,0.611c-0.574-0.714-1.818-2.119-2.879-2.354
		c-0.902-0.293-1.857,0.051-2.488,0.902c-0.803,1.081-0.579,3.104-0.425,4.015c-0.967-0.458-3.349-1.404-4.596-0.276
		c-1.392,1.261,0.04,3.83,0.655,4.789c-0.456-0.003-1.161,0.011-1.591,0.109c-1.047,0.24-1.563,1.276-1.386,2.102
		C135.39,142.408,139.064,145.729,143.121,146.409"/>
	<path fill="#FFFFFF" d="M166.823,132.024l0.134,0.008c0.85,0.054,1.168,0.673,1.549,1.392c0.264,0.498,0.537,1.012,1.006,1.366
		l0.002,0.001c0.271,0.198,0.578,0.352,0.877,0.5c0.732,0.366,1.424,0.712,1.633,1.678c0.037,0.178,0.172,0.295,0.355,0.316
		c0.016,0.002,0.031,0.002,0.048,0.002c0.207,0.005,0.466-0.116,0.521-0.32c0.368-1.383-0.624-2.017-1.585-2.629
		c-0.736-0.471-1.498-0.957-1.862-1.802c-0.464-1.078-1.33-1.727-2.349-1.779l-0.069-0.004l-0.06,0.036
		c-0.393,0.233-0.426,0.749-0.256,1.113L166.823,132.024z"/>
	<path fill="#FFFFFF" d="M171.818,132.673c0.149,0.141,0.313,0.281,0.477,0.423c0.655,0.565,1.332,1.149,1.53,2.06
		c0.021,0.098,0.041,0.201,0.062,0.307c0.154,0.786,0.346,1.765,1.244,2.011l0.07,0.019l0.066-0.025
		c0.332-0.121,0.449-0.413,0.352-0.865c-0.209-0.973-1.059-4.201-3.162-4.888l-0.116-0.039l-0.096,0.078
		c-0.042,0.034-0.089,0.066-0.134,0.097c-0.187,0.129-0.495,0.346-0.35,0.736L171.818,132.673z"/>
	<path fill="#FFFFFF" d="M160.762,133.492l0.131,0.002c0.7,0.008,0.773,0.467,0.844,1.269c0.031,0.357,0.064,0.727,0.205,1.028
		c0.51,1.715,2.586,1.928,3.461,1.938c0.179,0.01,0.369,0.226,0.537,0.424c0.184,0.217,0.371,0.44,0.621,0.468
		c0.033,0.004,0.066,0.004,0.102,0c0.283-0.028,0.468-0.304,0.579-0.51l0.044-0.079l-0.021-0.087
		c-0.308-1.163-1.345-1.375-2.259-1.561c-0.405-0.083-0.791-0.161-1.101-0.312c-0.713-0.349-1.006-1.344-0.979-2.217
		c-0.125-0.835-0.809-1.659-1.875-1.623l-0.106,0.031c-0.414,0.245-0.408,0.802-0.243,1.111L160.762,133.492z"/>
	<path fill="#FFFFFF" d="M164.413,134.729l0.075,0.008c2.135,0.227,3.008,1.41,4.205,3.079l0.25,0.345
		c0.197,0.273,0.578,0.477,0.968,0.521c0.267,0.031,0.54-0.014,0.763-0.161l0.051-0.035l0.027-0.055
		c0.363-0.74-0.261-1.049-0.674-1.254c-0.262-0.129-0.531-0.264-0.588-0.455c-0.719-2.425-2.772-2.876-4.76-3.313l-0.047-0.01
		l-0.05,0.01c-0.247,0.053-0.43,0.221-0.495,0.464c-0.078,0.28,0.012,0.61,0.219,0.804L164.413,134.729z"/>
	<path fill="#FFFFFF" d="M159.757,135.545c-0.554-0.298-1.077-0.58-1.509-0.92l-0.188-0.149l-0.631,0.902l0.084,0.128
		c0.489,0.746,1.24,1.098,1.967,1.438c0.211,0.099,0.424,0.2,0.635,0.311c0.326,0.173,0.544,0.543,0.755,0.904
		c0.241,0.412,0.528,0.902,1.024,0.958c0.147,0.018,0.314-0.005,0.506-0.081l0.141-0.055l0.002-0.149
		C162.582,137.063,161.146,136.292,159.757,135.545"/>
	<path fill="#FFFFFF" d="M175.27,140.943c0.125,0.375,0.254,0.762,0.271,1.119c0.038,0.785-0.216,1.438-0.486,2.129
		c-0.346,0.888-0.703,1.805-0.396,2.995c-0.056-0.01-0.117-0.025-0.166-0.038c-0.267-0.071-0.709-0.187-0.943,0.283
		c-0.144,0.298-0.099,0.906,0.259,1.14l0.053,0.035l0.063,0.002c0.175,0.004,0.362,0.029,0.558,0.054
		c0.67,0.086,1.504,0.193,1.854-0.557l0.056-0.121l-0.076-0.108c-0.724-0.992-0.363-1.906,0.051-2.965
		c0.289-0.739,0.588-1.503,0.533-2.354c-0.068-1.066-0.287-2.581-0.933-3.743l-0.106-0.192l-0.195,0.103
		C174.698,139.234,175.002,140.142,175.27,140.943"/>
	<path fill="#FFFFFF" d="M160.414,141.235c0.406,0.046,0.574-0.313,0.664-0.507l0.063-0.129l-0.02-0.079
		c-0.496-1.986-2.49-2.008-4.094-2.027l-0.295-0.004c-0.435-0.006-0.871-0.168-1.336-0.34c-0.654-0.24-1.332-0.488-2.059-0.314
		l-0.087,0.044c-0.367,0.295-0.128,0.739,0.006,0.987l0.033,0.061l0.062,0.032c1.211,0.639,2.537,0.784,3.823,0.924
		c0.712,0.077,1.445,0.157,2.142,0.32c0.17,0.04,0.26,0.181,0.393,0.408c0.139,0.238,0.313,0.534,0.68,0.619L160.414,141.235z"/>
	<path fill="#FFFFFF" d="M174.878,150.977l-0.101,0.113l0.068,0.137c0.022,0.041,0.038,0.101,0.055,0.162
		c0.053,0.192,0.141,0.516,0.543,0.562l0.074,0.008l0.063-0.034c1.404-0.785,3.064-1.551,4.809-1.361l-0.187,2.823l0.821,0.185
		c-0.455,0.297-0.912,0.605-1.356,0.908c-1.63,1.107-3.315,2.254-5.085,2.842c-3.074,0.234-6.032-1.299-7.971-2.625l-0.062-0.028
		c-0.481-0.156-0.692,0.368-0.782,0.591l-0.105,0.236l0.113,0.111c1.431,1.399,3.276,2.16,5.048,2.768
		c0.536,0.221,1.067,0.354,1.595,0.414c2.795,0.316,5.439-1.402,7.633-2.828c0.563-0.365,1.094-0.711,1.584-0.991
		c0.325-0.187,0.629-0.327,0.924-0.464c0.349-0.16,0.676-0.313,1.016-0.527l4.865,0.518l0.238-1.676
		c0.09-0.017,0.197-0.053,0.303-0.129c0.233-0.172,0.371-0.474,0.412-0.899c0.031-0.339-0.332-0.603-0.561-0.733l0.01-0.481
		c0.377-0.171,0.441-0.246,0.463-0.271l0.049-0.055c0.287-0.327,0.68-0.773,0.242-1.489c-0.123-0.2-0.396-0.335-0.582-0.409
		l0.025-0.569c0.313-0.093,0.912-0.34,0.912-0.862c0-0.629-0.467-0.998-0.711-1.147l0.156-1.735l-1.453-0.241l0.111-1.805
		l-4.818-0.546l-0.199,1.769l-1.748-0.199l-0.303,2.787c-0.301,0.114-0.937,0.419-0.973,0.983c-0.041,0.597,0.227,0.897,0.438,1.138
		c0.194,0.218,0.312,0.351,0.241,0.633c-0.297,0.575-0.946,0.613-1.637,0.653c-0.385,0.022-0.748,0.043-1.056,0.163
		C176.501,149.738,175.508,150.249,174.878,150.977 M183.93,144.625l0.25-1.563l2.246,0.321l-0.129,1.737l1.729,0.242l-0.739,7.471
		l-5.313-0.729l0.438-7.613L183.93,144.625z"/>
	<path fill="#FFFFFF" d="M164.128,142.002c0.481-0.077,0.937-0.151,1.144-0.443l0.125-0.175l-0.17-0.133
		c-0.521-0.412-1.932-1.05-2.707-0.253c-0.647,0.666-0.904,1.383-0.766,2.135c0.088,0.477,0.422,0.956,0.848,1.223
		c0.191,0.121,0.396,0.193,0.594,0.216c0.148,0.017,0.298,0.007,0.438-0.031l0.064-0.019l0.043-0.047
		c0.188-0.205,0.268-0.399,0.245-0.596c-0.032-0.305-0.305-0.494-0.543-0.66c-0.145-0.1-0.305-0.212-0.342-0.308
		c-0.092-0.231-0.104-0.406-0.039-0.521C163.198,142.153,163.691,142.073,164.128,142.002"/>
	<path fill="#FFFFFF" d="M157.15,141.683c-0.24,0.016-0.48,0.032-0.721,0.036c-0.257,0.004-0.541-0.177-0.816-0.352
		c-0.338-0.217-0.688-0.441-1.053-0.344c-0.235,0.062-0.433,0.245-0.6,0.558l-0.057,0.105l0.057,0.106
		c0.484,0.917,1.282,1.247,2.157,1.346c0.567,0.064,1.168,0.032,1.739,0.001c0.488-0.026,0.949-0.051,1.371-0.02l0.14,0.01
		l0.522-0.889l-0.166-0.12C158.96,141.563,158.041,141.624,157.15,141.683"/>
	<path fill="#FFFFFF" d="M172.706,145.141c0.151,0.017,0.313,0.008,0.491-0.033l0.104-0.024l0.047-0.098
		c0.396-0.819-0.324-1.23-0.849-1.532c-0.228-0.129-0.462-0.264-0.595-0.41l-0.123-0.135L171.623,143
		c-0.479,0.283-0.665,0.733-0.453,1.096l0.223,0.226C171.756,144.682,172.158,145.078,172.706,145.141"/>
	<path fill="#FFFFFF" d="M111.327,157.402c0.546-0.457,1.298-1.495,1.611-1.943c0.858,0.711,4.391,3.295,8.42,1.448l0.16-0.081
		l-0.034-0.176c-0.004-0.021,0.01-0.09,0.019-0.137c0.034-0.168,0.105-0.521-0.265-0.717l-0.077-0.041l-0.085,0.021
		c-3.119,0.803-6.565-0.227-8.379-2.5l-0.26-0.325l-0.129,0.396c-0.447,1.355-1.59,3.147-3.365,3.84
		c-0.055-0.51,0.437-2.396,0.804-3.801c0.349-1.336,0.71-2.719,0.848-3.661c0.034-0.234,0.107-0.379,0.217-0.433
		c0.305-0.148,0.989,0.236,1.538,0.545c0.383,0.216,0.746,0.419,1.045,0.499l0.075,0.02l0.071-0.03
		c0.017-0.008,1.72-0.738,2.301-0.908c1.586-0.461,3.7,0.251,5.141,1.729l0.088,0.09l0.123-0.026
		c0.359-0.08,0.586-0.563,0.892-1.292c0.105-0.25,0.214-0.51,0.292-0.611c0.598-0.788,1.27-0.976,2.047-1.194
		c0.448-0.125,0.911-0.255,1.401-0.507l0.122-0.062l0.001-0.137c0.006-1.405,0.463-2.666,1.228-3.437
		c1.828-1.403,3.87-0.963,6.03-0.499c0.517,0.111,1.034,0.223,1.549,0.308l0.233,0.039l0.116-1.023l-0.154-0.066
		c-1.51-0.649-5.295-1.99-7.811-0.422c-1.652,1.043-2.191,2.674-2.512,4.296c-0.323,0.209-0.684,0.305-1.063,0.406
		c-0.355,0.094-0.723,0.192-1.075,0.387c-0.442,0.247-0.752,0.683-1.028,1.069c-0.379,0.533-0.534,0.698-0.701,0.603
		c-1.242-0.762-2.341-1.171-3.372-1.237c-1.345-0.093-2.679,0.368-3.935,0.861c-0.202-0.094-0.403-0.204-0.606-0.313
		c-0.646-0.349-1.313-0.71-2.078-0.67c-1.284,0.068-1.481,1.375-1.655,2.529c-0.075,0.49-0.145,0.953-0.296,1.354
		c-0.15,0.739-0.354,1.43-0.553,2.096c-0.417,1.404-0.812,2.73-0.715,4.438c0.023,0.399,0.237,0.574,0.412,0.649
		c0.074,0.031,0.156,0.054,0.243,0.063C109.146,158.947,110.784,157.859,111.327,157.402L111.327,157.402z"/>
	<path fill="#FFFFFF" d="M162.042,149.569l0.14,0.217c1.092,1.944,3.357,3.021,5.43,3.256c0.449,0.051,0.891,0.062,1.309,0.034
		c1.953-0.131,3.813-1.539,4.626-3.505l0.095-0.23l-0.238-0.072c-0.219-0.065-0.404-0.12-0.569-0.167
		c-0.586-0.169-0.909-0.263-1.628-0.585c-0.422-0.188-0.717-0.486-0.979-0.748c-0.244-0.247-0.457-0.461-0.718-0.507
		c-0.129-0.026-0.271,0.036-0.368,0.164c-0.154,0.2-0.238,0.594-0.115,0.862c0.283,0.621,0.92,1.013,1.66,1.468
		c0.254,0.155,0.514,0.315,0.778,0.496c-0.928,1.043-2.519,1.538-4.053,1.229c-2.356-0.473-4.263-2.078-5.388-4.556
		c-0.09-0.132-0.164-0.419-0.231-0.674c-0.131-0.5-0.244-0.931-0.58-0.978c-0.308-0.046-0.526,0.276-0.692,0.558l-0.037,0.062
		l0.006,0.072C160.604,147.327,161.368,148.519,162.042,149.569"/>
	<path fill="#FFFFFF" d="M175.357,166.402c0.113-0.215,1.34-0.711,2.85-0.404c2.979,0.607,5.014,0.845,6.156-1.305
		c0.629-1.104,1.273-1.021,2.686-0.84c0.446,0.059,0.953,0.123,1.544,0.158c0.535,0.032,1.056-0.21,1.466-0.683
		c0.371-0.427,0.601-0.981,0.535-1.298c-0.041-0.201-0.291-0.477-0.525-0.51l0,0c-0.146-0.02-0.275,0.049-0.344,0.181
		c-0.629,1.219-1.938,0.979-3.203,0.75c-0.678-0.123-1.319-0.241-1.797-0.095c-0.524,0.162-1.238,1.367-1.381,1.619
		c-0.597,1.187-2.088,0.908-3.662,0.614c-0.709-0.132-1.442-0.269-2.086-0.255c-0.277,0.006-0.584,0.073-0.879,0.141
		c-0.475,0.105-0.965,0.217-1.234,0.031c-0.127-0.086-0.213-0.24-0.26-0.473c1.268-1.291,1.394-2.036,1.504-2.694
		c0.021-0.132,0.043-0.26,0.076-0.389c0.064-0.265-0.027-0.538-0.252-0.75c-0.174-0.163-0.441-0.298-0.652-0.229
		c-0.108,0.033-0.188,0.119-0.211,0.23c-0.101,0.48-0.219,0.867-0.401,1.453c-0.19,0.604-0.375,1.082-0.806,1.146
		c-0.53-1.177-1.493-0.852-2.205-0.61c-0.354,0.119-0.687,0.231-0.965,0.207c-1.826-2.531-4.233-4.215-7.781-5.441
		c-0.352-0.986-2.983-7.979-7.217-8.944l-0.088-0.02l-0.076,0.044c-0.282,0.164-0.485,0.434-0.547,0.722
		c-0.045,0.221,0,0.437,0.127,0.607l0.041,0.059l0.07,0.022c3.604,1.172,5.512,5.34,6.477,8.629l0.031,0.105l0.104,0.039
		c0.483,0.188,0.981,0.358,1.481,0.53c2.313,0.797,4.701,1.62,5.855,4.001c0.738,1.518,2.338,1.165,3.123,0.936
		c0.113,0.27,0.165,0.547,0.188,0.703l0.021,0.154l0.151,0.034c0.533,0.122,0.668,0.264,0.701,0.339
		c0.06,0.134-0.078,0.38-0.213,0.616c-0.224,0.397-0.541,0.963-0.113,1.487c-0.325-0.086-0.582-0.065-0.78,0.056
		c-0.32,0.192-0.388,0.587-0.449,0.934c-0.032,0.188-0.065,0.384-0.135,0.501c-0.072-0.054-0.179-0.145-0.254-0.212
		c-0.271-0.235-0.554-0.479-0.818-0.472c-0.481,0.018-0.726,0.438-0.901,0.747c-0.063,0.104-0.154,0.266-0.18,0.288
		c-0.127-0.019-0.236-0.45-0.31-0.735c-0.142-0.555-0.302-1.183-0.826-1.364c-0.806-0.279-1.642-0.554-2.493-0.83
		c-1.865-0.609-3.795-1.238-5.631-2.019c-1.6-0.677-3.408-2.905-5.157-5.062c-0.891-1.096-1.812-2.229-2.696-3.149l-0.082-0.084
		l-0.115,0.019c-0.322,0.049-0.514,0.237-0.701,0.506l-0.092,0.131l2.521,3.472c-4.13,2.823-7.761,2.511-13.779,1.519
		c-0.249-0.041-0.551-0.143-0.87-0.252c-0.712-0.24-1.519-0.513-2.224-0.294l-0.101,0.05l-0.044,0.082
		c-0.099,0.189-0.363,0.695,0.063,0.967l0.051,0.023c7.003,2.285,12.394,2.797,17.836-0.836c2.514,3.758,6.654,5.143,10.705,6.432
		c-0.412,0.147-0.805,0.347-0.881,0.676c-0.047,0.207,0.034,0.412,0.244,0.613c0.413,0.394,1.08,0.236,1.5-0.106
		c0.197-0.162,0.598-0.304,0.86-0.382c0.173,0.378,0.621,1.242,1.305,1.824c0.242,0.207,0.481,0.308,0.707,0.336
		c0.478,0.066,0.901-0.174,1.192-0.338c0.129-0.074,0.25-0.143,0.326-0.16c0.213-0.047,0.526,0.007,0.806,0.056
		c0.317,0.054,0.595,0.103,0.79,0.019c0.541-0.229,0.574-0.721,0.598-1.045c0.008-0.129,0.018-0.263,0.055-0.324
		c0.027,0.015,0.064,0.033,0.095,0.047c0.214,0.111,0.594,0.309,1.002,0.045c0.422,0.35,1.054,0.783,1.401,0.617
		c0.133-0.065,0.185-0.166,0.203-0.238c0.055-0.223-0.102-0.438-0.338-0.762C175.699,167.836,175.223,167.18,175.357,166.402"/>
	<path fill="#FFFFFF" d="M185.063,161.965c0.178,0.114,0.435,0.146,0.635,0.083c0.16-0.052,0.283-0.163,0.345-0.313
		c0.756-1.894,0.47-3.918-0.76-5.293c-0.286-0.287-0.994-0.455-1.074-0.473l-0.342-0.078l0.069,0.344
		c0.002,0.007,0.142,0.711-0.1,1.217c-0.102,0.215-0.227,0.435-0.352,0.66c-0.405,0.725-0.865,1.543-0.771,2.438
		c0.123,1.162,0.41,1.854,0.854,2.054c0.059,0.025,0.121,0.043,0.183,0.053c0.155,0.021,0.319-0.014,0.456-0.098
		c0.212-0.132,0.334-0.367,0.346-0.664c0.008-0.222-0.088-0.498-0.191-0.791c-0.102-0.289-0.217-0.615-0.202-0.834
		c0.045-0.776,0.377-1.851,0.87-1.853c0.125,0.071,0.257,0.767,0.185,1.485c-0.019,0.189-0.116,0.43-0.211,0.66
		C184.801,161.043,184.557,161.641,185.063,161.965"/>
	<path fill="#FFFFFF" d="M135.913,158.48l-0.09,0.014l-0.056,0.072c-0.507,0.651-0.729,1.412-0.944,2.146
		c-0.182,0.624-0.354,1.212-0.699,1.748c-1.162,2.354-3.851,3.101-6.583,3.554l-0.113,0.02l-0.051,0.102
		c-0.006,0.012-0.559,1.092-0.775,1.42c-2.567,3.891-8.173,3.549-12.774,2.818l-0.179-0.029l-0.066,0.168
		c-0.482,1.215-1.561,2.314-3.189,3.26c-0.085,0.041-0.417,0.09-0.766,0.123c0.286-0.84,1.03-3.059,1.264-3.938
		c0.108-0.41,0.142-0.886,0.177-1.392c0.097-1.403,0.233-2.338,1.19-2.494c0.701-0.114,1.319,0.152,2.09,0.617l0.151,0.092
		l0.125-0.123c0.218-0.219,0.373-0.461,0.524-0.694c0.079-0.124,0.159-0.248,0.239-0.354c1.862-2.185,4.845-4.582,8.458-3.599
		l0.321,0.087l-0.038-0.33c-0.102-0.918,0.178-1.776,0.448-2.608c0.07-0.214,0.139-0.425,0.201-0.636
		c0.298-1.008,1.629-1.629,2.775-1.877l0.2-0.041l-0.023-0.203c-0.04-0.364-0.089-0.729-0.138-1.09
		c-0.242-1.776-0.47-3.455,0.419-5.151c0.617-1.174,1.869-1.848,3.723-1.999c0.439-0.033,0.893,0.164,1.33,0.357
		c0.484,0.214,0.942,0.418,1.339,0.248c0.233-0.098,0.404-0.304,0.524-0.628l0.061-0.165l-0.144-0.099
		c-1.792-1.242-4.689-1.602-6.754,0.11c-2.199,1.821-1.963,4.937-1.761,7.455c-0.258,0.172-0.903,0.603-1.158,0.748
		c-1.301,0.744-1.664,2.021-2.016,3.256c-0.1,0.355-0.197,0.693-0.313,1.013c-3.747-0.627-7.003,2.396-8.657,4.33
		c-0.292-0.011-0.615-0.054-0.955-0.097c-0.956-0.121-1.957-0.248-2.576,0.232c-0.292,0.227-0.467,0.57-0.521,1.02
		c-0.431,3.572-2.049,8.664-2.065,8.715l-0.043,0.136l0.105,0.099c0.298,0.276,0.641,0.424,1.015,0.467
		c1.641,0.186,3.882-1.65,5.647-3.445c2.845,0.4,5.166,0.479,7.09,0.24c3.061-0.381,5.41-2.879,6.52-4.942
		c0.292-0.063,0.587-0.117,0.881-0.169c0.675-0.119,1.373-0.244,2.052-0.512c3.211-1.26,4.509-4.53,5.206-6.881
		c0.059-0.201,0.171-0.699-0.078-0.988C136.375,158.553,136.208,158.441,135.913,158.48"/>
	<path fill="#FFFFFF" d="M190.05,161.281c0.29,0.059,0.532,0.005,0.706-0.149c0.303-0.268,0.309-0.761,0.285-1.106
		c-0.039-0.59,0.547-0.813,1.377-1.061c0.087-0.025,0.174-0.053,0.256-0.078c0.002,0.15-0.039,0.409-0.086,0.547
		c-0.125,0.363-0.416,0.6-0.725,0.852c-0.475,0.386-1.014,0.824-0.703,1.723l0.049,0.145l0.15,0.008
		c0.045,0.003,1.11,0.053,1.731-1.051c0.595-1.055,0.97-2.213,0.979-3.021c0.012-0.85-0.133-1.4-0.426-1.643
		c-0.19-0.156-0.375-0.129-0.41-0.121l-0.146,0.029l-0.027,0.149c0,0.004-0.09,0.435-0.529,0.753
		c-0.355,0.26-0.83,0.479-1.248,0.669c-0.305,0.142-0.566,0.261-0.751,0.38c-0.438,0.283-1.044,1.805-0.907,2.504
		C189.695,161.163,189.921,161.257,190.05,161.281"/>
	<path fill="#FFFFFF" d="M179.8,162.348c-0.274,0.344-0.562,0.7-0.495,1.09c0.035,0.209,0.17,0.392,0.402,0.541
		c0.074,0.045,0.205,0.092,0.404,0.027c0.293-0.093,0.66-0.404,0.758-0.639c1.525-3.725-0.076-5.467-0.146-5.539l-0.164-0.171
		l-0.162,0.173c-0.073,0.078-1.842,1.947-2.388,2.911c-0.372,0.657-0.676,2.284-0.336,2.968c0.126,0.254,0.31,0.329,0.442,0.348
		c0.197,0.027,0.391-0.041,0.539-0.188c0.309-0.306,0.406-0.904,0.291-1.78c-0.066-0.521,0.598-1.13,1.437-1.33
		c0.029,0.215-0.091,0.803-0.271,1.152C180.045,162.041,179.926,162.189,179.8,162.348"/>
	<path fill="#FFFFFF" d="M193.813,168.423c-0.002-0.01-0.256-0.882-0.199-1.396c0.175-1.553-1.381-2.799-3.002-3.344l-0.161-0.056
		l-0.099,0.142c-0.216,0.315-0.287,0.57-0.225,0.799c0.087,0.313,0.396,0.455,0.697,0.595c0.17,0.078,0.346,0.159,0.478,0.267
		c0.712,0.588,0.825,0.944,0.829,1.105c0,0.029-0.003,0.057-0.008,0.078c-0.732-0.25-1.501-0.535-1.617-0.618
		c-0.594-0.429-0.746-0.739-1.029-1.519c-0.049-0.134-0.149-0.228-0.287-0.263c-0.244-0.063-0.516,0.072-0.633,0.173
		c-0.121,0.104-0.254,0.319-0.197,0.752c0.084,0.656,0.561,1.549,1.136,1.83c0.14,0.067,0.366,0.211,0.629,0.374
		c0.813,0.507,1.974,1.229,2.95,1.362c0.193,0.025,0.382,0.029,0.557,0.003l0.255-0.039L193.813,168.423z"/>
	<path fill="#FFFFFF" d="M184.971,165.018c-0.23-0.055-0.453,0.15-0.588,0.354c-0.152,0.229-0.18,0.444-0.076,0.592
		c0.166,0.234,0.41,0.466,0.67,0.709c0.588,0.556,1.252,1.179,1.252,2.06c-0.226,0.078-0.6-0.06-0.896-0.229
		c-0.558-0.316-0.787-1.229-0.924-1.771c-0.052-0.203-0.089-0.352-0.136-0.449c-0.032-0.07-0.142-0.231-0.444-0.189
		c-0.255,0.034-0.738,0.245-0.793,0.547c-0.083,0.463,0.266,1.979,1.293,2.682c0.183,0.123,0.375,0.271,0.575,0.424
		c0.609,0.465,1.313,1,1.959,1.088c0.371,0.05,0.726-0.049,1.029-0.393l0.067-0.077l-0.015-0.103
		C187.753,168.836,187.076,165.477,184.971,165.018"/>
	<path fill="#FFFFFF" d="M182.564,170.023c-0.039-0.119-0.074-0.232-0.107-0.357c-0.03-0.077-0.744-1.904-1.587-2.387
		c-0.171-0.098-0.356-0.252-0.538-0.402c-0.398-0.332-0.809-0.672-1.244-0.591c-0.247,0.048-0.46,0.229-0.63,0.542
		c-0.031,0.057-0.05,0.111-0.06,0.161c-0.092-0.195-0.217-0.359-0.404-0.456c-0.234-0.121-0.528-0.115-0.896,0.021
		c-0.059,0.021-0.162,0.081-0.209,0.237c-0.15,0.517,0.564,2.086,1.078,2.761c0.945,1.25,2.928,1.521,4.539,1.741
		c0.006,0.001,0.01,0.002,0.014,0.002l0.238,0.032l0.018-0.239C182.799,170.758,182.676,170.367,182.564,170.023 M179.232,167.799
		l0.129,0.049c0.447,0.174,0.892,0.627,1.354,1.379c-0.604,0.06-1.213-0.147-1.555-0.547l-0.045-0.041
		c-0.291-0.193-0.404-0.615-0.515-1.021c-0.014-0.055-0.029-0.109-0.043-0.165C178.729,167.611,178.991,167.709,179.232,167.799"/>
	<path fill="#FFFFFF" d="M183.648,149.046c0.184,0.241,0.531,0.701,0.891,1.202l-1.395,1.109l0.771,0.968l1.411-1.123
		c0.153,0.172,0.315,0.351,0.351,0.394l0.66,0.825l0.938-0.746l-0.987-1.239l1.239-0.986l-0.771-0.968l-1.237,0.986l-0.619-0.777
		c0.201-0.037,0.367-0.112,0.504-0.229c0.354-0.304,0.387-0.784,0.408-1.135c0.004-0.064,0.008-0.125,0.015-0.178
		c0.036-0.33-0.054-0.619-0.272-0.861c-0.686-0.76-2.451-0.748-2.525-0.748l-0.198,0.002l-0.49,4.32l1.196,0.185L183.648,149.046z
		 M184.645,147.33c-0.006,0.055-0.024,0.091-0.069,0.122c-0.155,0.11-0.507,0.098-0.753,0.066l0.078-0.699
		C184.213,146.89,184.677,147.053,184.645,147.33"/>
</g>
</svg>
