<svg id="Layer_1" data-name="Layer 1" xmlns="http://www.w3.org/2000/svg" viewBox="0 0 503.41 141.6"><title>CityDrug_Logo</title><path d="M159.61,86.65a2.06,2.06,0,0,0-.82-1.9,6,6,0,0,0-2.94-.51h-1.23v4.68h1.26a10.58,10.58,0,0,0,2.24-.18,1.85,1.85,0,0,0,1.14-.67,2.43,2.43,0,0,0,.35-1.42m6,0a6.17,6.17,0,0,1-.37,2.11,5.63,5.63,0,0,1-1.2,1.92,6,6,0,0,1-2.24,1.44,9,9,0,0,1-3.31.55h-3.84v7.29h-5.86V80.51h9.7a8.91,8.91,0,0,1,3.31.56A6,6,0,0,1,164,82.53a5.63,5.63,0,0,1,1.2,1.95,6.4,6.4,0,0,1,.37,2.15" style="fill:#fff"/><polygon points="192.66 99.94 186.81 99.94 186.81 92.36 177.99 92.36 177.99 99.94 172.13 99.94 172.13 80.51 177.99 80.51 177.99 87.65 186.81 87.65 186.81 80.51 192.66 80.51 192.66 99.94" style="fill:#fff"/><path d="M213.5,92.62l-2.85-7.09-2.87,7.09h5.72Zm8.93,7.32h-6L214.85,96h-8.44l-1.61,3.94h-6l8.59-19.43h6.48Z" style="fill:#fff"/><path d="M239.43,86.65a2,2,0,0,0-.88-1.88,5.82,5.82,0,0,0-2.87-.53h-1.23v4.68h1.26a6.34,6.34,0,0,0,2.94-.47,1.92,1.92,0,0,0,.79-1.8m8,13.29H241.1l-1.53-3.45a14.24,14.24,0,0,0-1.51-2.77,3.25,3.25,0,0,0-1.31-1.12,4.66,4.66,0,0,0-1.65-.24h-0.66v7.58h-5.86V80.51h10a7.25,7.25,0,0,1,4,1,5.88,5.88,0,0,1,2.22,2.38,6.09,6.09,0,0,1,.68,2.66,5,5,0,0,1-.57,2.49,4.56,4.56,0,0,1-1.2,1.48,11.78,11.78,0,0,1-1.42.88,5.61,5.61,0,0,1,1.55,1.3,16.23,16.23,0,0,1,1.66,3Z" style="fill:#fff"/><polygon points="276.26 99.94 270.4 99.94 270.4 88.68 265.12 95.2 264.65 95.2 259.36 88.68 259.36 99.94 253.66 99.94 253.66 80.51 258.98 80.51 264.95 87.8 270.95 80.51 276.26 80.51 276.26 99.94" style="fill:#fff"/><path d="M297.13,92.62l-2.85-7.09-2.87,7.09h5.72Zm8.93,7.32h-6L298.48,96H290l-1.61,3.94h-6L291,80.51h6.48Z" style="fill:#fff"/><path d="M328.77,98.48a14,14,0,0,1-2.47,1,15.66,15.66,0,0,1-2.54.54,21.46,21.46,0,0,1-2.66.16,13.76,13.76,0,0,1-4.55-.7,9.86,9.86,0,0,1-3.49-2.07,8.78,8.78,0,0,1-2.22-3.2,10.68,10.68,0,0,1-.74-4,10.4,10.4,0,0,1,.87-4.39,8.47,8.47,0,0,1,2.43-3.13A10.39,10.39,0,0,1,317,80.84a14.61,14.61,0,0,1,4.21-.6,23,23,0,0,1,7.5,1.47v5.16a20.69,20.69,0,0,0-2.85-1.49,8.45,8.45,0,0,0-3.32-.6,7.52,7.52,0,0,0-3.17.67A5.85,5.85,0,0,0,317,87.38a4.86,4.86,0,0,0-.9,2.92,4.91,4.91,0,0,0,.78,2.7A5.57,5.57,0,0,0,319,94.94a6.76,6.76,0,0,0,3.15.72,10.22,10.22,0,0,0,2.68-.34,12.29,12.29,0,0,0,2.12-.76,18.94,18.94,0,0,0,1.77-1v4.92Z" style="fill:#fff"/><polygon points="355.34 80.51 347.73 91.04 347.73 99.94 341.87 99.94 341.87 91.15 334.12 80.51 340.2 80.51 344.66 86.62 349.13 80.51 355.34 80.51" style="fill:#fff"/><path d="M102.37,113.08a1,1,0,0,0-.88-0.41,4.22,4.22,0,0,0-1.17.16c-0.36.1-.8,0.25-1.3,0.44a16,16,0,0,0-2,.94,31.41,31.41,0,0,0-5.26,3.52q-2.44,2-2.56,3a1.33,1.33,0,0,0,.84,1.28,13.59,13.59,0,0,0,1.81.89q1,0.42,1.5.64,2.5,1.25,2.5,3.31a3.24,3.24,0,0,1-.53,1.75,6.3,6.3,0,0,1-2.55,2.17A13.15,13.15,0,0,1,89.17,132a20.32,20.32,0,0,1-3.32.34,12,12,0,0,1-4.75-1,4.7,4.7,0,0,1-2.94-3.18,6.87,6.87,0,0,0,3.19,1.47,18.43,18.43,0,0,0,3.88.44,15.64,15.64,0,0,0,4.08-.44,11.94,11.94,0,0,0,2.32-1,10.11,10.11,0,0,0,1.81-1.28,2.15,2.15,0,0,0,.83-1.63,2,2,0,0,0-1.19-1.61c-0.06,0-.69-0.3-1.89-0.78a9,9,0,0,1-2.75-1.6,2.65,2.65,0,0,1-1-2q0-2.13,2.63-4.33A20.57,20.57,0,0,1,95.85,112a15,15,0,0,1,5.3-1.22,4.36,4.36,0,0,1,2.38.55,1.72,1.72,0,0,1,.84,1.52v0.28q-0.09,1-3.41,4a13.71,13.71,0,0,0-2.14,2.52,4.63,4.63,0,0,0-.92,2.46v0.19a2.4,2.4,0,0,1-1-2,5.68,5.68,0,0,1,1-2.75,15,15,0,0,1,4.47-4.5" style="fill:#fff"/><path d="M105,126.21q1.66-.91,1.66-1.85a0.92,0.92,0,0,0-1.13-.94,2.62,2.62,0,0,0-1.13.28,7.27,7.27,0,0,0-2.53,2.06,5.47,5.47,0,0,0-1.5,3.38,2,2,0,0,0,.33,1.11,1.28,1.28,0,0,0,1.17.52,7.15,7.15,0,0,0,3.72-1.55,30.55,30.55,0,0,0,3.88-3.11q0.38-.37.38,0a0.47,0.47,0,0,1-.19.38l-1.55,1.42q-0.39.36-1.55,1.28a12.71,12.71,0,0,1-1.88,1.3,8.54,8.54,0,0,1-3.77,1.16,3.84,3.84,0,0,1-2.44-.7,2.35,2.35,0,0,1-.89-2,5.74,5.74,0,0,1,2.38-4.58,7.81,7.81,0,0,1,5-1.92,2.89,2.89,0,0,1,2.35.75,1.4,1.4,0,0,1,.25.8,1.92,1.92,0,0,1-.28.92,4.63,4.63,0,0,1-2.11,1.7,6.84,6.84,0,0,1-2.92.73,0.9,0.9,0,0,1-.58-0.09c0-.06,0-0.11.08-0.14a1,1,0,0,1,.34,0,6.6,6.6,0,0,0,2.94-.88" style="fill:#fff"/><path d="M117.42,124.84a27.18,27.18,0,0,0-2.24,2.92,4.42,4.42,0,0,0-.86,1.88,0.53,0.53,0,0,0,.64.55,7,7,0,0,0,2.63-1.28,25.53,25.53,0,0,0,3.68-2.88,0.31,0.31,0,0,1,.28-0.13,0.15,0.15,0,0,1,.13.16,0.48,0.48,0,0,1-.13.28,27.07,27.07,0,0,1-6.16,4.63,4.28,4.28,0,0,1-1.35.38,3.09,3.09,0,0,1-2-.5,1.46,1.46,0,0,1-.55-1.09,3,3,0,0,1,.47-1.81q1.53-2.16,2.44-3.66c0.19-.29.15-0.49-0.11-0.61a2.41,2.41,0,0,0-1-.17,2.44,2.44,0,0,1-.61,0,23.4,23.4,0,0,1-4.16,4.44c-0.17.15-.26,0.15-0.28,0a0.94,0.94,0,0,1,.34-0.59,19.8,19.8,0,0,0,3.6-4,0.59,0.59,0,0,1-.28-0.51c0-.22,0-0.49,0-0.8a3.49,3.49,0,0,1,.48-1.25,2.06,2.06,0,0,1,1.56-1.31,0.64,0.64,0,0,1,.69.75,3.74,3.74,0,0,1-1,2.25,3.86,3.86,0,0,1-.88.81,11.55,11.55,0,0,1,3.38-.38,1.66,1.66,0,0,1,1.56.81,0.88,0.88,0,0,1,.06.38,1.47,1.47,0,0,1-.41.75" style="fill:#fff"/><path d="M132.26,121.8a0.28,0.28,0,0,1,0,.12s0,0.05-.11,0a0.21,0.21,0,0,1-.14-0.09,0.67,0.67,0,0,0-.59-0.47q-1.13,0-4,4.63a24.28,24.28,0,0,1-3,4.16,3.42,3.42,0,0,1-1.47.88,5,5,0,0,1-1.22.25,1.54,1.54,0,0,1-.59-0.09,10.26,10.26,0,0,0,1.06-2.33q0.56-1.61.86-2.85a9.77,9.77,0,0,0,.27-1.24L122,126.12a19.55,19.55,0,0,1-2,1.81c-0.25.21-.38,0.2-0.38,0a0.47,0.47,0,0,1,.17-0.34l0.61-.55,0.58-.51,0.53-.48a7.58,7.58,0,0,0,.58-0.58,12.13,12.13,0,0,0,1.28-1.75,1.71,1.71,0,0,0,.14-0.74,0.63,0.63,0,0,0-.16-0.47,0.26,0.26,0,0,1-.11-0.27q0-.37.53-0.19a1.78,1.78,0,0,1,1.19,1.44,7.08,7.08,0,0,1,.09,1.3,16.39,16.39,0,0,1-.31,2.58,8,8,0,0,1-1.19,3.13q1.41-.91,3.24-4.52a19.94,19.94,0,0,1,2.86-4.61,1.68,1.68,0,0,1,2.63.47" style="fill:#fff"/><path d="M135.44,121.55a0.85,0.85,0,0,1-.28-0.81,2.21,2.21,0,0,1,.56-1.13,1.67,1.67,0,0,1,1.35-.59,0.85,0.85,0,0,1,.53.24,0.83,0.83,0,0,1,.22.78,1.85,1.85,0,0,1-.5,1,2,2,0,0,1-1,.62,1,1,0,0,1-.89-0.14M135,123.21a10.71,10.71,0,0,0-2.14,3.33,8.78,8.78,0,0,0-.86,2.83,0.65,0.65,0,0,0,.64.81,5,5,0,0,0,2.13-.94,25.72,25.72,0,0,0,3.39-2.66c0.27-.25.41-0.22,0.41,0.09a0.19,0.19,0,0,1-.06.13Q137,128.12,136,129a15.27,15.27,0,0,1-2.46,1.61,5.26,5.26,0,0,1-2.33.77,2.42,2.42,0,0,1-1.67-.5,1.47,1.47,0,0,1-.55-1.1,3.37,3.37,0,0,1,.41-1.78,17,17,0,0,1,1.38-1.81q-0.34.28-1.08,0.94c-0.49.44-.83,0.73-1,0.88s-0.28.11-.28-0.13a1.13,1.13,0,0,1,.5-0.62q0.5-.41,2.17-2.06a13,13,0,0,1,2.28-2,2.33,2.33,0,0,1,1-.31,1.17,1.17,0,0,1,.58.11c0.13,0.07.16,0.15,0.09,0.23" style="fill:#fff"/><path d="M146.34,124.09a1.42,1.42,0,0,0,.44-0.78q0-.28-0.58-0.28a3.64,3.64,0,0,0-1.83,1.1,19,19,0,0,0-2.8,3.35q-1.64,2.34-2.38,3.18a2,2,0,0,1-1.3.83h-0.13a2.47,2.47,0,0,1-1.59-.66q0.19-.28.91-1.22a43.22,43.22,0,0,0,2.79-3.75,29.69,29.69,0,0,1-2.28,2.1c-0.21.17-.33,0.18-0.36,0a0.39,0.39,0,0,1,.14-0.39L138,127l0.58-.51,0.53-.48a7.58,7.58,0,0,0,.58-0.58,12,12,0,0,0,1.28-1.75,1.74,1.74,0,0,0,.14-0.74,0.62,0.62,0,0,0-.16-0.47,0.26,0.26,0,0,1-.11-0.27,0.22,0.22,0,0,1,.25-0.25,0.76,0.76,0,0,1,.28.06,1.72,1.72,0,0,1,1,1.74,7.74,7.74,0,0,1-.56,2.77q1.22-1.6,1.85-2.28a4.48,4.48,0,0,1,3.19-1.81,1.62,1.62,0,0,1,1.81,1.31,4,4,0,0,1,0,.58,2.74,2.74,0,0,1-.3,1,14.78,14.78,0,0,1-1.39,2.16,15.59,15.59,0,0,0-1.27,1.89,0.88,0.88,0,0,0-.11.58,0.31,0.31,0,0,0,.28.22,2.31,2.31,0,0,0,1.28-.5,35.34,35.34,0,0,0,3.32-2.78q0.34-.34.34,0.06a0.45,0.45,0,0,1-.16.31,21.62,21.62,0,0,1-4.5,3.5q-1.72.88-2.69,0.28a1.17,1.17,0,0,1-.6-1,3.93,3.93,0,0,1,.25-1.36,16.68,16.68,0,0,1,3.22-4.6" style="fill:#fff"/><path d="M152.25,129.84a0.65,0.65,0,0,0,.75.72,2.67,2.67,0,0,0,1.47-.66,22.34,22.34,0,0,0,4.44-4.1A3.48,3.48,0,0,0,160,123.9a0.69,0.69,0,0,0-.17-0.45,1,1,0,0,0-.74-0.2,4.56,4.56,0,0,0-1.8.66,10.6,10.6,0,0,0-2.53,2,12.16,12.16,0,0,0-1.89,2.38,3.69,3.69,0,0,0-.59,1.58m-4.85,9.82a8,8,0,0,1-4.52-1.19,3.81,3.81,0,0,1-1.8-3.38c0-.08,0-0.13.09-0.13a0.28,0.28,0,0,1,.28.25A4.83,4.83,0,0,0,143,138a4.3,4.3,0,0,0,1.55.88,5.2,5.2,0,0,0,1.64.34H147a8.17,8.17,0,0,0,6.07-3.5,32.49,32.49,0,0,0,2.16-3.11q0.94-1.55,2-3.46a30,30,0,0,1,1.85-2.91q-1,1.09-2.44,2.5a14.76,14.76,0,0,1-2.53,2,4,4,0,0,1-2,.63,2.31,2.31,0,0,1-1.55-.55,1.72,1.72,0,0,1-.64-1.36,6.69,6.69,0,0,1,2.06-4.54,8.59,8.59,0,0,1,3.88-2.35,6.38,6.38,0,0,1,2-.34,3.7,3.7,0,0,1,1.91.55,2.48,2.48,0,0,1,1.17,1.3,1.94,1.94,0,0,1,1.1.42,1.27,1.27,0,0,1,.59.61,0.37,0.37,0,0,1-.25.31q-1,.5-3.16,4.38a33,33,0,0,1-4.91,6.66,10.72,10.72,0,0,1-3.27,2.33,8.84,8.84,0,0,1-3.74.86" style="fill:#fff"/><path d="M170.64,131.84q0-1.16,3.38-6.38a5.52,5.52,0,0,1-2.07-.94A2.06,2.06,0,0,1,171,123a1.57,1.57,0,0,1,.42-1.2c0.28-.26.42-0.31,0.42-0.14a0.77,0.77,0,0,1-.19.38,0.87,0.87,0,0,0-.19.53,2,2,0,0,0,.81,1.64,4.25,4.25,0,0,0,2,.83q2.44-3.63,4.91-6.83t2.88-3.21a0.4,0.4,0,0,1,.33.22,0.81,0.81,0,0,1,.14.44q-3.94,4.88-7.16,9.54c0.21,0,.43,0,0.66,0a21.62,21.62,0,0,0,6.62-1.27,24.12,24.12,0,0,0,5.79-2.6,10.94,10.94,0,0,0,2.89-2.69,4.54,4.54,0,0,0,.94-2.52,3.19,3.19,0,0,0-.74-2.06,3.68,3.68,0,0,0-2-1.24,9.38,9.38,0,0,0-2.27-.33,25.58,25.58,0,0,0-7.68,1.38,18.75,18.75,0,0,0-5.83,2.66q-0.53.41-.38,0.67c0.1,0.18.12,0.28,0.06,0.3a0.29,0.29,0,0,1-.25-0.09,1.72,1.72,0,0,1-.84-1,3.17,3.17,0,0,1-.19-0.85,0.57,0.57,0,0,1,.16-0.42q1.16-1.66,5.4-3.07a38.48,38.48,0,0,1,8.43-1.81q0.72-.06,1.8-0.06a9.62,9.62,0,0,1,2.53.4,4.61,4.61,0,0,1,2.3,1.38,4.21,4.21,0,0,1,1.06,2.91,7.15,7.15,0,0,1-2.06,4.69,11.91,11.91,0,0,1-2.88,2.34,31.09,31.09,0,0,1-6.3,2.63,22,22,0,0,1-6.27,1.13,12.68,12.68,0,0,1-1.28-.06,32.53,32.53,0,0,0-3.53,6,0.61,0.61,0,0,1-.53.5,0.28,0.28,0,0,1-.34-0.28" style="fill:#fff"/><path d="M197.37,123.18a4,4,0,0,0-1.56.41,8.45,8.45,0,0,0-3,2.38q-2.28,2.69-2.28,3.94a0.53,0.53,0,0,0,.53.66,3.68,3.68,0,0,0,1.45-.56,13.64,13.64,0,0,0,2.67-2.22l0.72-.69,1.06-1a4.43,4.43,0,0,0,1.47-2.21c0-.45-0.35-0.67-1-0.67m2.28,3.1c-0.23.27-.46,0.56-0.7,0.88s-0.54.74-.91,1.28a2.63,2.63,0,0,0-.55,1.38,0.47,0.47,0,0,0,.49.56,4,4,0,0,0,1.58-.59,26.57,26.57,0,0,0,4.85-3.75c0.21-.21.34-0.24,0.41-0.09v0.13a0.35,0.35,0,0,1-.13.22q-5.38,5.07-7.82,5.07a1.63,1.63,0,0,1-1.2-.48,1.56,1.56,0,0,1-.48-1.14,5.86,5.86,0,0,1,.56-2,11.33,11.33,0,0,1-3,2.71,5.54,5.54,0,0,1-2.52,1,2.31,2.31,0,0,1-1.55-.55,1.72,1.72,0,0,1-.64-1.36,6.69,6.69,0,0,1,2.07-4.54,8.58,8.58,0,0,1,3.88-2.34,6.34,6.34,0,0,1,2-.35,3.7,3.7,0,0,1,1.91.55,2.48,2.48,0,0,1,1.17,1.3,1.44,1.44,0,0,1,1.35.69,0.57,0.57,0,0,1,.06.31,0.83,0.83,0,0,1-.24.5l-0.58.69" style="fill:#fff"/><path d="M212.22,124.84a27.18,27.18,0,0,0-2.24,2.92,4.42,4.42,0,0,0-.86,1.88,0.53,0.53,0,0,0,.64.55,7,7,0,0,0,2.63-1.28,25.44,25.44,0,0,0,3.68-2.88,0.31,0.31,0,0,1,.28-0.13,0.15,0.15,0,0,1,.13.16,0.48,0.48,0,0,1-.13.28,27.07,27.07,0,0,1-6.16,4.63,4.28,4.28,0,0,1-1.35.38,3.09,3.09,0,0,1-2-.5,1.46,1.46,0,0,1-.55-1.09,3,3,0,0,1,.47-1.81q1.53-2.16,2.44-3.66c0.19-.29.15-0.49-0.11-0.61a2.42,2.42,0,0,0-1-.17,2.44,2.44,0,0,1-.61,0,23.4,23.4,0,0,1-4.16,4.44c-0.17.15-.26,0.15-0.28,0a0.94,0.94,0,0,1,.34-0.59,19.8,19.8,0,0,0,3.6-4,0.59,0.59,0,0,1-.28-0.51c0-.22,0-0.49,0-0.8a3.49,3.49,0,0,1,.48-1.25,2.06,2.06,0,0,1,1.56-1.31,0.64,0.64,0,0,1,.69.75,3.74,3.74,0,0,1-1,2.25,3.89,3.89,0,0,1-.88.81,11.54,11.54,0,0,1,3.38-.38,1.66,1.66,0,0,1,1.56.81,0.88,0.88,0,0,1,.06.38,1.47,1.47,0,0,1-.41.75" style="fill:#fff"/><path d="M224.45,123.18a4,4,0,0,0-1.56.41,8.46,8.46,0,0,0-3,2.38q-2.28,2.69-2.28,3.94a0.53,0.53,0,0,0,.53.66,3.67,3.67,0,0,0,1.45-.56,13.6,13.6,0,0,0,2.68-2.22l0.72-.69,1.06-1a4.43,4.43,0,0,0,1.47-2.21c0-.45-0.35-0.67-1-0.67m2.28,3.1c-0.23.27-.46,0.56-0.7,0.88s-0.54.74-.91,1.28a2.63,2.63,0,0,0-.55,1.38,0.47,0.47,0,0,0,.48.56,4,4,0,0,0,1.58-.59,26.57,26.57,0,0,0,4.85-3.75c0.21-.21.34-0.24,0.41-0.09v0.13a0.35,0.35,0,0,1-.13.22q-5.38,5.07-7.82,5.07a1.63,1.63,0,0,1-1.2-.48,1.56,1.56,0,0,1-.48-1.14,5.86,5.86,0,0,1,.56-2,11.33,11.33,0,0,1-3,2.71,5.54,5.54,0,0,1-2.52,1,2.31,2.31,0,0,1-1.55-.55,1.72,1.72,0,0,1-.64-1.36,6.69,6.69,0,0,1,2.07-4.54,8.58,8.58,0,0,1,3.88-2.34,6.33,6.33,0,0,1,2-.35,3.7,3.7,0,0,1,1.91.55,2.48,2.48,0,0,1,1.17,1.3,1.44,1.44,0,0,1,1.35.69,0.59,0.59,0,0,1,.06.31,0.83,0.83,0,0,1-.24.5l-0.58.69" style="fill:#fff"/><path d="M232.62,129.84a0.65,0.65,0,0,0,.75.72,2.67,2.67,0,0,0,1.47-.66,22.3,22.3,0,0,0,4.44-4.1,3.47,3.47,0,0,0,1.06-1.91,0.69,0.69,0,0,0-.17-0.45,1,1,0,0,0-.73-0.2,4.56,4.56,0,0,0-1.8.66,10.58,10.58,0,0,0-2.53,2,12.24,12.24,0,0,0-1.89,2.38,3.71,3.71,0,0,0-.59,1.58m-4.85,9.82a8,8,0,0,1-4.52-1.19,3.82,3.82,0,0,1-1.8-3.38c0-.08,0-0.13.09-0.13a0.28,0.28,0,0,1,.28.25,4.83,4.83,0,0,0,1.53,2.75,4.29,4.29,0,0,0,1.55.88,5.18,5.18,0,0,0,1.64.34h0.84a8.18,8.18,0,0,0,6.07-3.5,32.23,32.23,0,0,0,2.16-3.11q0.94-1.55,2-3.46a30,30,0,0,1,1.85-2.91q-1,1.09-2.44,2.5a14.64,14.64,0,0,1-2.53,2,4,4,0,0,1-2,.63,2.31,2.31,0,0,1-1.55-.55,1.72,1.72,0,0,1-.64-1.36,6.69,6.69,0,0,1,2.06-4.54,8.61,8.61,0,0,1,3.88-2.35,6.35,6.35,0,0,1,2-.34,3.7,3.7,0,0,1,1.91.55,2.47,2.47,0,0,1,1.17,1.3,1.94,1.94,0,0,1,1.09.42,1.26,1.26,0,0,1,.59.61,0.37,0.37,0,0,1-.25.31q-1,.5-3.16,4.38a33,33,0,0,1-4.91,6.66,10.74,10.74,0,0,1-3.27,2.33,8.85,8.85,0,0,1-3.74.86" style="fill:#fff"/><path d="M251.48,127.28a3.89,3.89,0,0,0,.78-2,1.79,1.79,0,0,0-1.66-1.61,5.06,5.06,0,0,0-3.52,1.5,7.46,7.46,0,0,0-2.14,3.19,3.54,3.54,0,0,0-.22,1.24,1,1,0,0,0,.48.91,2.21,2.21,0,0,0,1.08.27,4.17,4.17,0,0,0,1.72-.59,0.48,0.48,0,0,1-.19-0.06,0.56,0.56,0,0,1-.38-0.5,3.14,3.14,0,0,1,1.22-2.22,2.68,2.68,0,0,1,1.78-.78,0.88,0.88,0,0,1,1,.69m-3,3.28a8.36,8.36,0,0,1-3.66,1.06,1.83,1.83,0,0,1-1.78-.88,2,2,0,0,1-.25-1,5.66,5.66,0,0,1,.59-2.5,5.16,5.16,0,0,1-.78.66c-0.21.19-.31,0.17-0.31-0.06a1.33,1.33,0,0,1,.55-0.69q0.55-.47,1.67-1.58t1.78-1.67a6.2,6.2,0,0,1,4-1.6,3.56,3.56,0,0,1,1.59.41,2.08,2.08,0,0,1,1.19,2.07,5.54,5.54,0,0,1-1.81,3.72,9.31,9.31,0,0,1-2,1.63,10.81,10.81,0,0,0,5.44-3.1,0.39,0.39,0,0,1,.28-0.11,0.13,0.13,0,0,1,.12.14,0.36,0.36,0,0,1-.12.25q-3.44,3.25-6.41,3.25h-0.12Z" style="fill:#fff"/><path d="M261.23,126.28q-0.31.47-.84,1.19l-1,1.38a2,2,0,0,0-.47,1,0.28,0.28,0,0,0,.31.33,3.1,3.1,0,0,0,1.66-1l1-1q1.53-1.66,2.69-3.19l1.16-1.41a1.64,1.64,0,0,1,1.13-.62,2.51,2.51,0,0,1,1.69.69q-0.19.28-.61,0.81l-0.85,1.08-1,1.27q-0.55.72-1,1.35t-0.83,1.33a7.72,7.72,0,0,0-.61,1.2q-0.47,1.38,0,1.72c0.1,0.11.08,0.16-.06,0.16a0.28,0.28,0,0,1-.13,0,1.81,1.81,0,0,1-1.19-1.94,8.69,8.69,0,0,1,1-3.63q-3.35,4.32-5.44,4.32a1.37,1.37,0,0,1-1.59-1.5,4.35,4.35,0,0,1,.22-1.25,16.1,16.1,0,0,1,3.19-4.44,1.17,1.17,0,0,0,.35-0.69c0-.19-0.13-0.28-0.38-0.28a2.28,2.28,0,0,0-1.13.56,26.94,26.94,0,0,0-2.1,1.83q-1.35,1.27-1.64,1.52c-0.2.17-.3,0.13-0.3-0.12a1.47,1.47,0,0,1,.59-0.67,19.69,19.69,0,0,0,1.63-1.56,15.7,15.7,0,0,1,1.8-1.66,2.85,2.85,0,0,1,1.77-.58,1.54,1.54,0,0,1,1.53.84,1.83,1.83,0,0,1,.16.81,3,3,0,0,1-.25,1.11,6.24,6.24,0,0,1-.56,1.08" style="fill:#fff"/><path d="M270.17,129.81a0.75,0.75,0,0,0,.84.84,5.13,5.13,0,0,0,1.58-.41,11.41,11.41,0,0,0,2.8-1.78,29,29,0,0,0,2.32-2,2,2,0,0,1,.72-0.59c0.08,0,.11.07,0.09,0.19a0.55,0.55,0,0,1-.16.3,31.35,31.35,0,0,1-4.41,3.91,5.9,5.9,0,0,1-3.25,1.19,2.23,2.23,0,0,1-1.78-.59,2.06,2.06,0,0,1-.5-1.38,7.76,7.76,0,0,1,1-3.38q-1.82,1.94-1.81,1.25a0.42,0.42,0,0,1,.19-0.28,19.52,19.52,0,0,0,3.16-3.44,65.15,65.15,0,0,0,4.85-7.1,2.21,2.21,0,0,0,.31-0.88c0-.44-0.24-0.52-0.72-0.25a1.57,1.57,0,0,1-.88.31c0-.06,0-0.14.09-0.25a8.56,8.56,0,0,1,2.06-1.06,7.12,7.12,0,0,1,2.16-.53c0.88,0,1.31.27,1.31,0.81a2.73,2.73,0,0,1-.45,1.25,24.94,24.94,0,0,1-2.6,3.11Q275,121.4,274.48,122a27.3,27.3,0,0,0-4.1,6.73,3.61,3.61,0,0,0-.22,1.1" style="fill:#fff"/><path d="M286.35,123.74a0.63,0.63,0,0,0-.78-0.62,3.17,3.17,0,0,0-1.06.25,7.68,7.68,0,0,0-2.91,2.19,6,6,0,0,0-1.78,3.88,1.18,1.18,0,0,0,.72,1.32,0.85,0.85,0,0,0,.31.06q1.28,0,3.82-2.56a7.28,7.28,0,0,0,1.16-1.41c0.17-.48.39-1,0.66-1.66a0.36,0.36,0,0,1-.45,0c-0.11-.09-0.09-0.3.08-0.63a1.92,1.92,0,0,0,.25-0.86m-0.25,5.91a8.13,8.13,0,0,0-.59,2.66,2.41,2.41,0,0,0,.44,1.56C286,134,286,134,286,134a0.19,0.19,0,0,1-.09,0l-0.09,0a2.94,2.94,0,0,1-1-2.42,12.59,12.59,0,0,1,.66-3.71,18.09,18.09,0,0,1-2.53,2.72,4.77,4.77,0,0,1-3.06,1.25,3,3,0,0,1-1.88-.67,2.6,2.6,0,0,1-.88-2.21,5,5,0,0,1,.28-1.72c-0.42.38-.68,0.61-0.8,0.69s-0.19.08-.24,0a0.54,0.54,0,0,1-.06-0.24,0.46,0.46,0,0,1,.21-0.28q0.2-.17,2.17-2.3a8.22,8.22,0,0,1,2.75-2,7.4,7.4,0,0,1,3-.72,3.25,3.25,0,0,1,1.92.45,1.37,1.37,0,0,1,.61,1.14,50.69,50.69,0,0,1,2.42-4.52,22.65,22.65,0,0,1,2-3,2.53,2.53,0,0,1,2-.88,2.84,2.84,0,0,1,1.94.66,16.24,16.24,0,0,0-2.57,2.69q-1.91,2.28-3.72,4.9a24.78,24.78,0,0,0-2.94,5.71" style="fill:#fff"/><path d="M321.26,113.08a1,1,0,0,0-.88-0.41,4.22,4.22,0,0,0-1.17.16q-0.55.16-1.3,0.44a16,16,0,0,0-2,.94,31.41,31.41,0,0,0-5.26,3.52q-2.44,2-2.56,3A1.33,1.33,0,0,0,309,122a13.49,13.49,0,0,0,1.81.89q1,0.42,1.5.64,2.5,1.25,2.5,3.31a3.24,3.24,0,0,1-.53,1.75,6.31,6.31,0,0,1-2.55,2.17,13.16,13.16,0,0,1-3.64,1.21,20.29,20.29,0,0,1-3.31.34,12,12,0,0,1-4.75-1,4.7,4.7,0,0,1-2.94-3.18,6.87,6.87,0,0,0,3.19,1.47,18.45,18.45,0,0,0,3.88.44,15.64,15.64,0,0,0,4.08-.44,12,12,0,0,0,2.32-1,10.17,10.17,0,0,0,1.81-1.28,2.15,2.15,0,0,0,.83-1.63,2,2,0,0,0-1.19-1.61q-0.09-.06-1.89-0.78a9,9,0,0,1-2.75-1.6,2.65,2.65,0,0,1-1-2q0-2.13,2.63-4.33a20.6,20.6,0,0,1,5.74-3.42,15,15,0,0,1,5.3-1.22,4.36,4.36,0,0,1,2.38.55,1.72,1.72,0,0,1,.84,1.52v0.28q-0.09,1-3.41,4a13.71,13.71,0,0,0-2.14,2.52,4.62,4.62,0,0,0-.92,2.46v0.19a2.4,2.4,0,0,1-1-2,5.68,5.68,0,0,1,1-2.75,15,15,0,0,1,4.47-4.5" style="fill:#fff"/><path d="M322.87,121.55a0.85,0.85,0,0,1-.28-0.81,2.22,2.22,0,0,1,.56-1.13,1.67,1.67,0,0,1,1.35-.59,0.85,0.85,0,0,1,.53.24,0.83,0.83,0,0,1,.22.78,1.84,1.84,0,0,1-.5,1,2,2,0,0,1-1,.62,1,1,0,0,1-.89-0.14m-0.41,1.66a10.71,10.71,0,0,0-2.14,3.33,8.8,8.8,0,0,0-.86,2.83,0.65,0.65,0,0,0,.64.81,5,5,0,0,0,2.13-.94,26,26,0,0,0,3.39-2.66c0.27-.25.41-0.22,0.41,0.09a0.19,0.19,0,0,1-.06.13q-1.5,1.31-2.53,2.16a15.41,15.41,0,0,1-2.46,1.61,5.26,5.26,0,0,1-2.33.77,2.42,2.42,0,0,1-1.67-.5,1.47,1.47,0,0,1-.55-1.1,3.37,3.37,0,0,1,.41-1.78,17.12,17.12,0,0,1,1.37-1.81q-0.34.28-1.08,0.94c-0.49.44-.83,0.73-1,0.88s-0.28.11-.28-0.13a1.13,1.13,0,0,1,.5-0.62q0.5-.41,2.18-2.06a13,13,0,0,1,2.28-2,2.34,2.34,0,0,1,1-.31,1.17,1.17,0,0,1,.58.11c0.13,0.07.16,0.15,0.09,0.23" style="fill:#fff"/><path d="M333.77,124.09a1.42,1.42,0,0,0,.44-0.78c0-.19-0.19-0.28-0.58-0.28a3.63,3.63,0,0,0-1.83,1.1,18.9,18.9,0,0,0-2.8,3.35q-1.64,2.34-2.38,3.18a2,2,0,0,1-1.3.83H325.2a2.47,2.47,0,0,1-1.59-.66q0.19-.28.91-1.22a43.51,43.51,0,0,0,2.78-3.75,29.69,29.69,0,0,1-2.28,2.1c-0.21.17-.33,0.18-0.36,0a0.4,0.4,0,0,1,.14-0.39l0.63-.56,0.58-.51,0.53-.48a7.58,7.58,0,0,0,.58-0.58,12,12,0,0,0,1.28-1.75,1.74,1.74,0,0,0,.14-0.74,0.62,0.62,0,0,0-.16-0.47,0.26,0.26,0,0,1-.11-0.27,0.22,0.22,0,0,1,.25-0.25,0.75,0.75,0,0,1,.28.06,1.72,1.72,0,0,1,1,1.74,7.77,7.77,0,0,1-.56,2.77q1.22-1.6,1.85-2.28a4.48,4.48,0,0,1,3.19-1.81,1.62,1.62,0,0,1,1.81,1.31,3.93,3.93,0,0,1,0,.58,2.75,2.75,0,0,1-.3,1,14.78,14.78,0,0,1-1.39,2.16,15.59,15.59,0,0,0-1.27,1.89,0.9,0.9,0,0,0-.11.58,0.32,0.32,0,0,0,.28.22,2.31,2.31,0,0,0,1.28-.5,35.33,35.33,0,0,0,3.32-2.78q0.34-.34.34,0.06a0.45,0.45,0,0,1-.16.31,21.62,21.62,0,0,1-4.51,3.5q-1.72.88-2.69,0.28a1.17,1.17,0,0,1-.6-1,3.93,3.93,0,0,1,.25-1.36,16.68,16.68,0,0,1,3.22-4.6" style="fill:#fff"/><path d="M346.94,123.68a0.54,0.54,0,0,0-.63-0.59,4.7,4.7,0,0,0-1.64.49,7.66,7.66,0,0,0-2.49,2.08,5.79,5.79,0,0,0-1.66,3.5,1.56,1.56,0,0,0,.88,1.56,1.61,1.61,0,0,0,.66.13,5.9,5.9,0,0,0,3-1.1,34,34,0,0,0,4.49-3.63c0.29-.29.44-0.29,0.44,0a0.44,0.44,0,0,1-.19.34,27,27,0,0,1-5.61,4.33,7.37,7.37,0,0,1-2.83.83q-3.63,0-3.63-2.66a5.73,5.73,0,0,1,2.39-4.58,7.87,7.87,0,0,1,5-1.92,2.61,2.61,0,0,1,2.19.75,1.17,1.17,0,0,1,.34.8,2,2,0,0,1-.22.88,0.73,0.73,0,0,1-.7.45c-0.32,0-.37-0.2-0.14-0.61a2.22,2.22,0,0,0,.35-1" style="fill:#fff"/><path d="M356.3,126.21q1.66-.91,1.66-1.85a0.92,0.92,0,0,0-1.13-.94,2.62,2.62,0,0,0-1.13.28,7.26,7.26,0,0,0-2.53,2.06,5.47,5.47,0,0,0-1.5,3.38,2,2,0,0,0,.33,1.11,1.28,1.28,0,0,0,1.17.52,7.16,7.16,0,0,0,3.72-1.55,30.55,30.55,0,0,0,3.88-3.11c0.25-.25.38-0.26,0.38,0a0.47,0.47,0,0,1-.19.38l-1.55,1.42q-0.39.36-1.55,1.28a12.55,12.55,0,0,1-1.88,1.3,8.54,8.54,0,0,1-3.77,1.16,3.84,3.84,0,0,1-2.44-.7,2.35,2.35,0,0,1-.89-2,5.74,5.74,0,0,1,2.38-4.58,7.8,7.8,0,0,1,5-1.92,2.89,2.89,0,0,1,2.35.75,1.4,1.4,0,0,1,.25.8,1.91,1.91,0,0,1-.28.92,4.64,4.64,0,0,1-2.11,1.7,6.85,6.85,0,0,1-2.92.73,0.91,0.91,0,0,1-.58-0.09c0-.06,0-0.11.08-0.14a1,1,0,0,1,.35,0,6.6,6.6,0,0,0,2.94-.88" style="fill:#fff"/><path d="M368.57,122.88q0.53-.3,3.11-2.27a31,31,0,0,1,4.27-2.85,6.39,6.39,0,0,1,2.41-.88,1.91,1.91,0,0,1,1,.19,0.59,0.59,0,0,1,.28.27,0.14,0.14,0,0,1,0,.11l-0.16,0h-0.13a2.58,2.58,0,0,0-1.74,1,13.66,13.66,0,0,0-1.92,2.92q-1,1.88-1.77,3.68t-1.63,3.75q-0.83,2-1.14,2.61a2.7,2.7,0,0,1-2.13-1.28,1.67,1.67,0,0,1-.16-0.8,4.69,4.69,0,0,1,.31-1.42,26.55,26.55,0,0,1,4-7.19q-1.78,1.19-4.63,2.72c-0.31.19-.47,0.18-0.47,0a0.82,0.82,0,0,1,.53-0.61" style="fill:#fff"/><path d="M380.86,126.12a0.72,0.72,0,0,0,.75.88,2.89,2.89,0,0,0,1.09-.28,16.23,16.23,0,0,0,4.47-3.47q1.28-1.28,1.52-1.58l0.52-.64a7.79,7.79,0,0,0,.72-1.19,2.64,2.64,0,0,0,.34-1q0-.72-1-0.72a6.09,6.09,0,0,0-2.92,1.06,11.17,11.17,0,0,0-2.8,2.28q-2.69,3.16-2.69,4.69m3.72,5.68a18.13,18.13,0,0,0-1.11,1.81,11.25,11.25,0,0,0-.67,1.49,3.15,3.15,0,0,0-.22.92,3,3,0,0,0,.08.66,1,1,0,0,0,.55.61c0.11,0,.11.09,0,0.14l-0.17.08a1.85,1.85,0,0,1-1.91-1.94q0-2.82,3-6.85,2.16-3,4.72-5.91c0.17-.21.21-0.32,0.12-0.34a31.27,31.27,0,0,1-5.05,4.35,6.09,6.09,0,0,1-2.85,1.1,2.73,2.73,0,0,1-1.7-.5,2.42,2.42,0,0,1-1-2.07,7.76,7.76,0,0,1,2.5-5.19,10.17,10.17,0,0,1,4.66-2.82A8.49,8.49,0,0,1,388,117a4.56,4.56,0,0,1,2.22.56,3.26,3.26,0,0,1,1.78,2.85q0,2.16-2.28,4.85l-1,1.3-1.31,1.59q-0.73.89-1.42,1.81c-0.46.62-.91,1.24-1.35,1.88" style="fill:#fff"/><path d="M401.8,120.4a6.74,6.74,0,0,0-4.11,1.78,10.87,10.87,0,0,0-3.3,4.57,6.52,6.52,0,0,0-.47,2.25,1.81,1.81,0,0,0,1,1.78,2.72,2.72,0,0,0,1.21.22,6.14,6.14,0,0,0,2.17-.59,13.05,13.05,0,0,0,4.22-3.16,8.75,8.75,0,0,0,1.8-2.67,5.78,5.78,0,0,0,.45-1.7,2,2,0,0,0-1-2,4.62,4.62,0,0,0-2-.47m4.6-1.94a3.38,3.38,0,0,1,2,3.28,5.33,5.33,0,0,1-.41,1.85,10.43,10.43,0,0,1-2.32,3.63A15.71,15.71,0,0,1,400,131a10.76,10.76,0,0,1-3.78,1q-3.38,0-3.38-3,0-4.19,5.1-8.48a11,11,0,0,1,5.47-2.47c0.25,0,.49,0,0.72,0a4.77,4.77,0,0,1,2.22.53" style="fill:#fff"/><path d="M418.67,119.93q-1,.69-7.07,5.32a22.43,22.43,0,0,1,4.16-.56q0.34-.66,1.42-2.44t1.48-2.31m-0.81,6.1a13.17,13.17,0,0,0-1.13,4,1.59,1.59,0,0,0,.94,1.58q0.25,0.25-.72.25a2.37,2.37,0,0,1-2.44-1.41,3.64,3.64,0,0,1-.25-1.52,7.34,7.34,0,0,1,.81-2.77,19.87,19.87,0,0,0-3.16.55,8.23,8.23,0,0,1-1.94.36,0.65,0.65,0,0,1-.72-0.31,0.21,0.21,0,0,1-.06-0.16,1.15,1.15,0,0,1,.42-0.7,14.94,14.94,0,0,1,1.55-1.25q1.13-.83,2.88-2.21t3.13-2.41q5.1-3.75,6.76-3.75a1,1,0,0,1,.61.16,0.42,0.42,0,0,1,.2.25c0,0.08-.11.13-0.31,0.13q-1.28,0-2.92,2.33a32.62,32.62,0,0,0-3.08,5.58,8.56,8.56,0,0,1,3.33.77,1.77,1.77,0,0,1,1.14,1.52,1.73,1.73,0,0,1-.06.45c0,0.16-.11.22-0.2,0.2a0.11,0.11,0,0,1-.09-0.16,0.61,0.61,0,0,0,0-.22q0-.5-1.17-0.88a12.44,12.44,0,0,0-3.55-.38" style="fill:#fff"/><path d="M33,63.85a34.38,34.38,0,0,1-12.08-2.09,28.4,28.4,0,0,1-9.8-6.07,27.48,27.48,0,0,1-6.45-9.63A32.86,32.86,0,0,1,2.31,33.45,33.12,33.12,0,0,1,4.68,20.8a30.06,30.06,0,0,1,6.68-10.08A29.23,29.23,0,0,1,21.5,4.24a34.63,34.63,0,0,1,12.65-2.3A31,31,0,0,1,43,3.14a36.54,36.54,0,0,1,6.78,2.69l2.56-2.27H56L56.36,25H52.72q-3.1-9.82-7.43-14.42A14,14,0,0,0,34.71,6,12.94,12.94,0,0,0,22.9,12.81q-4,6.86-4,19.24a44.77,44.77,0,0,0,1.38,12,24.48,24.48,0,0,0,3.61,8,14.65,14.65,0,0,0,5.66,4.62,17.38,17.38,0,0,0,7.23,1.47A17.61,17.61,0,0,0,47,54.92a29.25,29.25,0,0,0,8.24-9.51l3.56,2.15a35.7,35.7,0,0,1-4.05,6.51A24.42,24.42,0,0,1,49.54,59a27.3,27.3,0,0,1-7.22,3.56A30.3,30.3,0,0,1,33,63.85" style="fill:#fff"/><path d="M93.12,62.24H60.57V59l3.29-.25a11.57,11.57,0,0,0,3-.5,3.94,3.94,0,0,0,2.09-1.63A5.31,5.31,0,0,0,69.5,54V12.44A5.51,5.51,0,0,0,69,10a3.93,3.93,0,0,0-2.11-1.74,19,19,0,0,0-2.94-.85Q62,6.95,60.57,6.78V3.55H93.12V6.78Q91.88,6.9,90,7.13a17.33,17.33,0,0,0-3.14.64,3.41,3.41,0,0,0-2.15,1.67A6,6,0,0,0,84.19,12V53.59a5.38,5.38,0,0,0,.56,2.54,4.06,4.06,0,0,0,2.13,1.72,14.25,14.25,0,0,0,2.88.72,30.59,30.59,0,0,0,3.37.43v3.23Z" style="fill:#fff"/><path d="M152.94,20.34h-3.23a36,36,0,0,0-4.11-8.06q-2.83-4.3-5.22-4.63-1.32-.16-3.26-0.29t-3.34-.12h-1.94v46a6.07,6.07,0,0,0,.54,2.63,3.82,3.82,0,0,0,2.11,1.8,18.65,18.65,0,0,0,3,.76q2,0.39,3.41.56v3.23H108.15V59l3.37-.35a12,12,0,0,0,3-.56,3.86,3.86,0,0,0,2.15-1.78,6,6,0,0,0,.54-2.65V7.23h-1.94q-1.4,0-3.34.12t-3.26.29q-2.39.33-5.22,4.63a36,36,0,0,0-4.11,8.06H96.08V3.55h56.86V20.34Z" style="fill:#fff"/><path d="M220.79,6.78a15.52,15.52,0,0,0-2.72.54,10.49,10.49,0,0,0-2.35,1,12.13,12.13,0,0,0-3.16,2.54,35.68,35.68,0,0,0-2.7,3.45q-2.69,3.93-5.64,8.54T197.79,33a22.11,22.11,0,0,0-2.79,5.4,28.06,28.06,0,0,0-.51,6.51v8.31a5.75,5.75,0,0,0,.56,2.61,4.14,4.14,0,0,0,2.13,1.82,21,21,0,0,0,3,.76,29.3,29.3,0,0,0,3.35.56v3.23H170.79V59q1.16-.08,3.33-0.33a14.16,14.16,0,0,0,3-.58,4,4,0,0,0,2.09-1.76,5.8,5.8,0,0,0,.56-2.67V43.34q0-1.36,0-2.4a6,6,0,0,0-.29-1.74,14.08,14.08,0,0,0-1-2L176.66,34q-3.19-5.58-6.16-10.59t-5.67-9.39A19,19,0,0,0,162,10.4a15.11,15.11,0,0,0-2.92-2.25,9.54,9.54,0,0,0-2.71-1,20.82,20.82,0,0,0-2.88-.41V3.55h33.62V6.78a26.52,26.52,0,0,0-6.22.64q-1.61.52-1.61,1.43a6,6,0,0,0,.6,1.82q0.6,1.37,2.13,4.22,1.41,2.69,4.11,7.4t6.51,11q7.85-12.44,10.78-17.37t2.93-6.06a2.36,2.36,0,0,0-1.72-2.15,17.63,17.63,0,0,0-5.59-1V3.55h21.75V6.78Z" style="fill:#fff"/><path d="M285.78,51.65a24.21,24.21,0,0,0,3-7.88,53.17,53.17,0,0,0,.93-10.53,42.44,42.44,0,0,0-1.24-10.63,24.81,24.81,0,0,0-3.64-8.19,16.66,16.66,0,0,0-6-5.25,17.36,17.36,0,0,0-8.13-1.86q-1.45,0-3.29.06l-2.75.1V52a8,8,0,0,0,.39,2.63,4.83,4.83,0,0,0,1.34,2A6.56,6.56,0,0,0,268.72,58a11.39,11.39,0,0,0,3.62.48,17.24,17.24,0,0,0,8-1.74,13.7,13.7,0,0,0,5.42-5.09m8.44-42.06A26.69,26.69,0,0,1,302.9,19a28.73,28.73,0,0,1,3.31,14.33,27.09,27.09,0,0,1-3,13,26.21,26.21,0,0,1-7.84,9,35.36,35.36,0,0,1-11.27,5.23,50.1,50.1,0,0,1-13.21,1.72H241.36V59q1.32,0,3.31-.25a10.57,10.57,0,0,0,2.65-.5,4,4,0,0,0,2.07-1.68A5.21,5.21,0,0,0,250,54V12.44a5.88,5.88,0,0,0-.54-2.54,4,4,0,0,0-2.11-1.84,12.35,12.35,0,0,0-3.33-1q-1.76-.25-2.71-0.33V3.55H272.5a49,49,0,0,1,10.71,1.28,33.25,33.25,0,0,1,11,4.76" style="fill:#fff"/><path d="M346.84,18.61q0-5.87-3.29-8.58t-9.37-2.71h-3.27V31.88h3.14q6.08,0,9.43-3.18t3.35-10.09M375,62.24H352.48Q346.66,53.3,342.79,48t-9.61-12.24h-2.27V53.59a5.25,5.25,0,0,0,.56,2.52,4.26,4.26,0,0,0,2.13,1.74,14.45,14.45,0,0,0,2.46.68,28.91,28.91,0,0,0,2.87.48v3.23H307.64V59l3.16-.35a12,12,0,0,0,2.79-.56,4,4,0,0,0,2.11-1.67,5.51,5.51,0,0,0,.54-2.59V12.44a6,6,0,0,0-.46-2.48,4,4,0,0,0-2.19-1.74,18.13,18.13,0,0,0-3.12-.91q-1.8-.37-2.83-0.54V3.55h32.92q11,0,16.77,3.45a11.39,11.39,0,0,1,5.73,10.44,13.83,13.83,0,0,1-3.54,9.91Q356,31.1,348.74,33.21q2.81,3.64,6.55,8.44t7.8,9.8q1.28,1.61,3.5,3.95a10.18,10.18,0,0,0,3.91,2.87,16.17,16.17,0,0,0,2.42.5Q374.38,59,375,59v3.23Z" style="fill:#fff"/><path d="M436.74,6.78q-1.2.12-3.45,0.56a9.67,9.67,0,0,0-3.78,1.51,5.82,5.82,0,0,0-2.21,3.72,37.42,37.42,0,0,0-.64,8.06V42.47q0,9.64-6.53,15.51t-17.29,5.87q-12.53,0-19.39-5.67t-6.86-15.8v-30A5.16,5.16,0,0,0,376,9.88,4.91,4.91,0,0,0,373.88,8a11,11,0,0,0-2.65-.87q-1.57-.33-2.56-0.46V3.55h30.77V6.7a27.05,27.05,0,0,0-2.69.31,19.47,19.47,0,0,0-2.77.68,3.23,3.23,0,0,0-2.11,1.65,6.1,6.1,0,0,0-.54,2.61V41.56q0,8.73,3.84,12.7t11.15,4q7.19,0,11.28-4.38t4.09-12.9V21a32.11,32.11,0,0,0-.72-7.92,7,7,0,0,0-2.21-3.78A10.31,10.31,0,0,0,415,7.69a38.27,38.27,0,0,0-3.74-.91V3.55h25.47V6.78Z" style="fill:#fff"/><path d="M501.1,38.37q-1.28.12-2.28,0.29a17.19,17.19,0,0,0-2.48.66,3.34,3.34,0,0,0-2.23,1.78,6.47,6.47,0,0,0-.54,2.61v6.82q0,2.07,0,3.33T493.74,57a50.16,50.16,0,0,1-12.22,4.67,57.17,57.17,0,0,1-14.87,2.19,36.09,36.09,0,0,1-12-1.95,27.76,27.76,0,0,1-9.8-5.83,27,27,0,0,1-6.64-9.56,33.27,33.27,0,0,1-2.42-13.08,34.68,34.68,0,0,1,2.28-12.71,28.3,28.3,0,0,1,6.58-10.06A28.73,28.73,0,0,1,455,4.22a37.9,37.9,0,0,1,13.42-2.28,33,33,0,0,1,9.26,1.24,41.35,41.35,0,0,1,7,2.65l2.56-2.27h3.6L491.22,25h-3.64q-3.14-9.66-7.53-14.34A14.53,14.53,0,0,0,469,6a13.66,13.66,0,0,0-12.26,7q-4.32,7-4.32,19.16,0,13,4.24,20.28t12,7.32a17.87,17.87,0,0,0,6.47-1.1,13.83,13.83,0,0,0,4.4-2.54V44.12a5.32,5.32,0,0,0-.54-2.5,4.4,4.4,0,0,0-2.15-1.76,13.79,13.79,0,0,0-3.1-1c-1.24-.25-2.27-0.43-3.1-0.54V35.15H501.1v3.23Z" style="fill:#fff"/><rect x="374.3" y="88.97" width="98.05" height="2.87" style="fill:#fff"/><rect x="28.11" y="88.97" width="98.05" height="2.87" style="fill:#fff"/></svg>